<svg width="25" height="24" viewBox="0 0 25 24" fill="none" xmlns="http://www.w3.org/2000/svg">
<g clip-path="url(#clip0_36_6711)">
<path d="M1.38017 14.0899L5.25017 17.9999C5.34313 18.0936 5.45373 18.168 5.57559 18.2188C5.69745 18.2696 5.82816 18.2957 5.96017 18.2957C6.09218 18.2957 6.22289 18.2696 6.34474 18.2188C6.4666 18.168 6.5772 18.0936 6.67017 17.9999C6.7639 17.9069 6.83829 17.7963 6.88906 17.6745C6.93983 17.5526 6.96597 17.4219 6.96597 17.2899C6.96597 17.1579 6.93983 17.0272 6.88906 16.9053C6.83829 16.7835 6.7639 16.6729 6.67017 16.5799L3.11017 12.9999H23.5002C23.7654 12.9999 24.0197 12.8945 24.2073 12.707C24.3948 12.5195 24.5002 12.2651 24.5002 11.9999C24.5002 11.7347 24.3948 11.4803 24.2073 11.2928C24.0197 11.1053 23.7654 10.9999 23.5002 10.9999H3.05017L6.67017 7.3799C6.84746 7.19392 6.94636 6.94684 6.94636 6.6899C6.94636 6.43296 6.84746 6.18588 6.67017 5.9999C6.5772 5.90617 6.4666 5.83178 6.34474 5.78101C6.22289 5.73024 6.09218 5.7041 5.96017 5.7041C5.82816 5.7041 5.69745 5.73024 5.57559 5.78101C5.45373 5.83178 5.34313 5.90617 5.25017 5.9999L1.38017 9.8499C0.818366 10.4124 0.502808 11.1749 0.502808 11.9699C0.502808 12.7649 0.818366 13.5274 1.38017 14.0899Z" fill="#0171E3"/>
</g>
<defs>
<clipPath id="clip0_36_6711">
<rect width="24" height="24" fill="white" transform="translate(0.5)"/>
</clipPath>
</defs>
</svg>
