<svg width="22" height="22" viewBox="0 0 22 22" fill="none" xmlns="http://www.w3.org/2000/svg">
<path d="M3.9505 13.7855H2.967C2.44532 13.7855 1.945 13.5783 1.57612 13.2094C1.20724 12.8405 1 12.3402 1 11.8185V2.967C1 2.44532 1.20724 1.945 1.57612 1.57612C1.945 1.20724 2.44532 1 2.967 1H11.8185C12.3402 1 12.8405 1.20724 13.2094 1.57612C13.5783 1.945 13.7855 2.44532 13.7855 2.967V3.9505M9.8515 7.8845H18.703C19.7893 7.8845 20.67 8.76515 20.67 9.8515V18.703C20.67 19.7893 19.7893 20.67 18.703 20.67H9.8515C8.76515 20.67 7.8845 19.7893 7.8845 18.703V9.8515C7.8845 8.76515 8.76515 7.8845 9.8515 7.8845Z" stroke="#0171E3" stroke-width="1.4" stroke-linecap="round" stroke-linejoin="round"/>
</svg>
