<svg width="19" height="18" viewBox="0 0 19 18" fill="none" xmlns="http://www.w3.org/2000/svg">
<g clip-path="url(#clip0_36_6725)">
<path d="M18.2608 2.45025C18.1201 2.30965 17.9294 2.23066 17.7305 2.23066C17.5316 2.23066 17.3409 2.30965 17.2003 2.45025L14.9698 4.68C14.8291 4.82062 14.75 5.01135 14.75 5.21025V13.5C14.75 13.6989 14.671 13.8897 14.5303 14.0303C14.3897 14.171 14.1989 14.25 14 14.25H12.5V3.75C12.4988 2.7558 12.1033 1.80267 11.4003 1.09966C10.6973 0.396661 9.7442 0.00119089 8.75 0L4.25 0C3.2558 0.00119089 2.30267 0.396661 1.59967 1.09966C0.896662 1.80267 0.501191 2.7558 0.5 3.75L0.5 14.25C0.501191 15.2442 0.896662 16.1973 1.59967 16.9003C2.30267 17.6033 3.2558 17.9988 4.25 18H8.75C9.47883 17.999 10.1916 17.7857 10.8011 17.3861C11.4106 16.9865 11.8905 16.418 12.182 15.75H14C14.5967 15.75 15.169 15.5129 15.591 15.091C16.013 14.669 16.25 14.0967 16.25 13.5V5.52075L18.2608 3.51075C18.4014 3.3701 18.4803 3.17937 18.4803 2.9805C18.4803 2.78163 18.4014 2.5909 18.2608 2.45025ZM4.25 1.5H8.75C9.34674 1.5 9.91904 1.73705 10.341 2.15901C10.7629 2.58097 11 3.15326 11 3.75V6.75H9.5C9.49706 6.03216 9.23468 5.3396 8.76125 4.8L9.28025 4.28025C9.35188 4.21106 9.40902 4.12831 9.44833 4.0368C9.48764 3.9453 9.50832 3.84689 9.50919 3.7473C9.51006 3.64772 9.49108 3.54896 9.45337 3.45678C9.41566 3.36461 9.35997 3.28087 9.28955 3.21045C9.21913 3.14003 9.13539 3.08434 9.04322 3.04663C8.95105 3.00892 8.85229 2.98995 8.7527 2.99081C8.65312 2.99168 8.5547 3.01237 8.4632 3.05167C8.3717 3.09098 8.28894 3.14812 8.21975 3.21975L7.50425 3.93525C7.05268 3.76784 6.56718 3.71271 6.08956 3.77459C5.61195 3.83647 5.15653 4.01351 4.76253 4.29047C4.36852 4.56743 4.04774 4.93601 3.82781 5.36447C3.60787 5.79292 3.49537 6.26841 3.5 6.75H2V3.75C2 3.15326 2.23705 2.58097 2.65901 2.15901C3.08097 1.73705 3.65326 1.5 4.25 1.5ZM5 6.75C5 6.35218 5.15804 5.97064 5.43934 5.68934C5.72065 5.40804 6.10218 5.25 6.5 5.25C6.89783 5.25 7.27936 5.40804 7.56066 5.68934C7.84197 5.97064 8 6.35218 8 6.75H5ZM8.75 16.5H4.25C3.65326 16.5 3.08097 16.2629 2.65901 15.841C2.23705 15.419 2 14.8467 2 14.25V8.25H11V14.25C11 14.8467 10.7629 15.419 10.341 15.841C9.91904 16.2629 9.34674 16.5 8.75 16.5Z" fill="#6E6E73"/>
</g>
<defs>
<clipPath id="clip0_36_6725">
<rect width="18" height="18" fill="white" transform="translate(0.5)"/>
</clipPath>
</defs>
</svg>
