<svg width="18" height="18" viewBox="0 0 18 18" fill="none" xmlns="http://www.w3.org/2000/svg">
<g clip-path="url(#clip0_36_6736)">
<path d="M9.00015 1.50021C9.99503 1.50347 10.9794 1.70401 11.8963 2.09022C12.8131 2.47643 13.6443 3.04065 14.3417 3.75021H12.0002C11.8012 3.75021 11.6105 3.82922 11.4698 3.96988C11.3292 4.11053 11.2502 4.30129 11.2502 4.50021C11.2502 4.69912 11.3292 4.88988 11.4698 5.03054C11.6105 5.17119 11.8012 5.25021 12.0002 5.25021H15.1074C15.4767 5.25001 15.8309 5.10321 16.092 4.84206C16.3532 4.58091 16.5 4.22678 16.5002 3.85746V0.750207C16.5002 0.551295 16.4211 0.360529 16.2805 0.219877C16.1398 0.0792246 15.9491 0.000206973 15.7502 0.000206973C15.5512 0.000206973 15.3605 0.0792246 15.2198 0.219877C15.0792 0.360529 15.0002 0.551295 15.0002 0.750207V2.30871C13.7605 1.1923 12.2346 0.443014 10.5932 0.144769C8.95186 -0.153477 7.25987 0.0110909 5.70674 0.620043C4.15361 1.22899 2.80066 2.25829 1.79941 3.59265C0.798157 4.92701 0.188133 6.51376 0.0376519 8.17521C0.0279644 8.27965 0.0401387 8.38497 0.0733991 8.48444C0.106659 8.58392 0.160277 8.67538 0.230834 8.753C0.301392 8.83061 0.387343 8.89267 0.483211 8.93524C0.579078 8.9778 0.682761 8.99993 0.787652 9.00021C0.971093 9.00254 1.1488 8.93634 1.286 8.81454C1.42319 8.69275 1.50999 8.52413 1.5294 8.34171C1.69636 6.47477 2.55538 4.73773 3.93771 3.47184C5.32004 2.20594 7.12576 1.50268 9.00015 1.50021Z" fill="#0171E3"/>
<path d="M17.2134 9.00006C17.0299 8.99772 16.8522 9.06393 16.715 9.18573C16.5778 9.30752 16.491 9.47614 16.4716 9.65856C16.3476 11.086 15.8168 12.4479 14.9421 13.5827C14.0674 14.7175 12.8855 15.5776 11.5367 16.061C10.1879 16.5443 8.72877 16.6306 7.33239 16.3097C5.936 15.9887 4.66099 15.2739 3.65862 14.2501H6.00012C6.19904 14.2501 6.3898 14.1711 6.53045 14.0304C6.6711 13.8897 6.75012 13.699 6.75012 13.5001C6.75012 13.3012 6.6711 13.1104 6.53045 12.9697C6.3898 12.8291 6.19904 12.7501 6.00012 12.7501H2.89287C2.70995 12.75 2.52879 12.7859 2.35977 12.8559C2.19075 12.9258 2.03718 13.0284 1.90783 13.1578C1.77848 13.2871 1.6759 13.4407 1.60594 13.6097C1.53598 13.7787 1.50002 13.9599 1.50012 14.1428V17.2501C1.50012 17.449 1.57914 17.6398 1.71979 17.7804C1.86044 17.9211 2.05121 18.0001 2.25012 18.0001C2.44903 18.0001 2.6398 17.9211 2.78045 17.7804C2.9211 17.6398 3.00012 17.449 3.00012 17.2501V15.6916C4.23974 16.808 5.76568 17.5573 7.40705 17.8555C9.04842 18.1538 10.7404 17.9892 12.2935 17.3802C13.8467 16.7713 15.1996 15.742 16.2009 14.4076C17.2021 13.0733 17.8121 11.4865 17.9626 9.82506C17.9723 9.72062 17.9601 9.6153 17.9269 9.51582C17.8936 9.41634 17.84 9.32488 17.7694 9.24727C17.6989 9.16966 17.6129 9.10759 17.5171 9.06503C17.4212 9.02247 17.3175 9.00034 17.2126 9.00006H17.2134Z" fill="#0171E3"/>
</g>
<defs>
<clipPath id="clip0_36_6736">
<rect width="18" height="18" fill="white"/>
</clipPath>
</defs>
</svg>
