<svg width="20" height="20" viewBox="0 0 20 20" fill="none" xmlns="http://www.w3.org/2000/svg">
<g clip-path="url(#clip0_36_6739)">
<path d="M19.3924 7.84858C18.0999 5.74358 15.1599 2.21191 9.99992 2.21191C4.83992 2.21191 1.89992 5.74358 0.607421 7.84858C0.207861 8.49484 -0.00378418 9.23962 -0.00378418 9.99941C-0.00378418 10.7592 0.207861 11.504 0.607421 12.1502C1.89992 14.2552 4.83992 17.7869 9.99992 17.7869C15.1599 17.7869 18.0999 14.2552 19.3924 12.1502C19.792 11.504 20.0036 10.7592 20.0036 9.99941C20.0036 9.23962 19.792 8.49484 19.3924 7.84858ZM17.9716 11.2777C16.8616 13.0827 14.3491 16.1202 9.99992 16.1202C5.65075 16.1202 3.13825 13.0827 2.02825 11.2777C1.79087 10.8936 1.66513 10.451 1.66513 9.99941C1.66513 9.54785 1.79087 9.10521 2.02825 8.72108C3.13825 6.91608 5.65075 3.87858 9.99992 3.87858C14.3491 3.87858 16.8616 6.91275 17.9716 8.72108C18.209 9.10521 18.3347 9.54785 18.3347 9.99941C18.3347 10.451 18.209 10.8936 17.9716 11.2777Z" fill="#0171E3"/>
<path d="M9.9998 5.83301C9.17571 5.83301 8.37013 6.07738 7.68492 6.53522C6.99972 6.99306 6.46567 7.6438 6.1503 8.40516C5.83494 9.16652 5.75242 10.0043 5.91319 10.8126C6.07396 11.6208 6.4708 12.3632 7.05352 12.946C7.63624 13.5287 8.37867 13.9255 9.18692 14.0863C9.99518 14.2471 10.833 14.1645 11.5943 13.8492C12.3557 13.5338 13.0064 12.9998 13.4643 12.3146C13.9221 11.6293 14.1665 10.8238 14.1665 9.99967C14.1651 8.89501 13.7257 7.83597 12.9446 7.05486C12.1635 6.27374 11.1045 5.83433 9.9998 5.83301ZM9.9998 12.4997C9.50534 12.4997 9.022 12.3531 8.61087 12.0783C8.19975 11.8036 7.87932 11.4132 7.6901 10.9564C7.50088 10.4996 7.45137 9.9969 7.54783 9.51195C7.6443 9.027 7.8824 8.58154 8.23203 8.23191C8.58166 7.88228 9.02712 7.64417 9.51207 7.54771C9.99703 7.45125 10.4997 7.50076 10.9565 7.68998C11.4133 7.87919 11.8038 8.19963 12.0785 8.61075C12.3532 9.02187 12.4998 9.50522 12.4998 9.99967C12.4998 10.6627 12.2364 11.2986 11.7676 11.7674C11.2987 12.2363 10.6628 12.4997 9.9998 12.4997Z" fill="#0171E3"/>
</g>
<defs>
<clipPath id="clip0_36_6739">
<rect width="20" height="20" fill="white"/>
</clipPath>
</defs>
</svg>
