<svg width="70" height="70" viewBox="0 0 70 70" fill="none" xmlns="http://www.w3.org/2000/svg">
  <g filter="url(#filter0_d_43_7256)">
    <rect x="7" y="7" width="50" height="50" rx="25" fill="white" />
    <rect x="7" y="7" width="50" height="50" rx="25" stroke="#36B37E" stroke-width="2" />
  </g>
  <path
    d="M28.4334 41.9999C27.9714 41.9984 27.5308 41.8053 27.2167 41.4666L19.1167 32.8499C18.4862 32.178 18.5197 31.1221 19.1917 30.4916C19.8636 29.861 20.9195 29.8946 21.55 30.5666L28.4167 37.8832L42.4334 22.5499C42.8209 22.0673 43.4441 21.8392 44.0517 21.9576C44.6592 22.076 45.1511 22.5214 45.3291 23.1142C45.5071 23.7071 45.3419 24.3497 44.9 24.7832L29.6667 41.4499C29.3555 41.7948 28.9145 41.9941 28.45 41.9999H28.4334Z"
    fill="#36B37E" />
  <defs>
    <filter id="filter0_d_43_7256" x="2" y="2" width="68" height="68" filterUnits="userSpaceOnUse"
      color-interpolation-filters="sRGB">
      <feFlood flood-opacity="0" result="BackgroundImageFix" />
      <feColorMatrix in="SourceAlpha" type="matrix" values="0 0 0 0 0 0 0 0 0 0 0 0 0 0 0 0 0 0 127 0"
        result="hardAlpha" />
      <feOffset dx="4" dy="4" />
      <feGaussianBlur stdDeviation="4" />
      <feColorMatrix type="matrix" values="0 0 0 0 0.211765 0 0 0 0 0.701961 0 0 0 0 0.494118 0 0 0 0.25 0" />
      <feBlend mode="normal" in2="BackgroundImageFix" result="effect1_dropShadow_43_7256" />
      <feBlend mode="normal" in="SourceGraphic" in2="effect1_dropShadow_43_7256" result="shape" />
    </filter>
  </defs>
</svg>